<svg width="103" height="113" viewBox="0 0 103 113" fill="none" xmlns="http://www.w3.org/2000/svg">
<path d="M1.38916 28.8185C0.513549 34.8999 1.38916 44.54 1.38916 44.54C1.38916 44.54 3.57534 58.8482 7.09175 67.3692C9.51786 73.2482 11.5942 76.2456 14.8028 81.7654C17.7123 86.7709 18.9028 89.9048 22.661 94.3547C26.1924 98.536 28.5258 100.704 33.0975 103.812C38.8361 107.713 42.53 109.684 49.3837 111.16C56.2999 112.65 60.4791 111.838 67.5312 111.16C74.1369 110.526 78.2428 110.818 84.2163 108.028C90.5626 105.064 93.8773 102.167 97.7106 96.4629C101.741 90.4645 102.537 85.2259 101.428 78.1602C100.4 71.6111 99.0431 66.5468 95.3708 62.8052C91.6985 59.0637 90.0072 57.7491 84.2163 54.3521C77.2204 50.2482 69.4281 50.7853 65.5768 43.8202C62.1595 37.6401 60.7273 33.7142 58.6236 27.0115C56.6842 20.8322 56.6307 16.6293 52.4415 11.5912C47.0668 5.12726 41.6103 2.62012 33.0975 1.47165C23.3193 0.152474 15.7478 1.36865 8.76782 8.09754C2.4912 14.1484 2.60927 20.3445 1.38916 28.8185Z" fill="#C1AE68" stroke="#544100" stroke-width="0.692884"/>
<path d="M4.46436 27.0115C3.58875 33.0929 4.46435 40.9102 4.46435 40.9102C4.46435 40.9102 6.28314 54.2843 9.79956 62.8053C12.2257 68.6843 13.6584 72.6404 16.867 78.1603L16.9722 78.3413C19.8068 83.2181 21.0533 85.3627 24.7659 89.7585C28.2973 93.9399 28.5258 96.074 33.0974 99.1817C38.836 103.083 41.3316 104.357 48.1853 105.833C55.1016 107.324 59.8411 107.897 66.8932 107.219C73.4989 106.585 79.4711 108.351 84.9775 104.725C90.6591 100.983 93.8773 102.167 97.7105 96.463C101.741 90.4646 102.537 85.2259 101.428 78.1603C100.4 71.6112 99.043 66.5469 95.3707 62.8053C91.6984 59.0637 90.0071 57.7491 84.2162 54.3521C77.2203 50.2483 69.428 50.7853 65.5767 43.8203C62.1594 37.6402 60.7273 33.7143 58.6236 27.0115C56.6841 20.8322 56.6306 16.6294 52.4414 11.5913C47.0667 5.12734 41.6102 2.6202 33.0974 1.47173C23.3193 0.152552 19.0661 1.61576 12.0861 8.34465C5.80945 14.3955 5.68447 18.5376 4.46436 27.0115Z" fill="#D8C891"/>
<path d="M65.5824 43.8202C62.2566 43.8202 7.09741 67.3692 7.09741 67.3692C9.52352 73.2481 11.5999 76.2455 14.8085 81.7654C17.718 86.7709 18.9085 89.9048 22.6666 94.3546C26.1981 98.536 28.5315 100.704 33.1031 103.812C38.8417 107.713 42.5356 109.684 49.3894 111.16C53.4201 105.162 102.543 85.2258 101.434 78.1602C100.406 71.6111 99.0487 66.5468 95.3765 62.8052C91.7042 59.0636 90.0129 57.749 84.222 54.352C77.2261 50.2482 69.4337 50.7852 65.5824 43.8202Z" fill="#92AACF" stroke="#544100" stroke-width="0.692884"/>
<path d="M65.5825 43.8202C62.2566 43.8202 11.0469 65.9925 11.0469 65.9925C13.473 71.8715 14.9057 75.5775 18.1143 81.0973C21.0239 86.1028 21.285 88.4958 25.0431 92.9457C28.5745 97.127 33.4977 98.2218 38.0693 101.33C43.808 105.231 54.7678 106.665 54.7678 106.665C54.7678 106.665 102.854 84.3539 101.293 77.2865C99.7326 70.2191 99.0488 66.5468 95.3765 62.8052C91.7042 59.0636 90.0129 57.749 84.222 54.352C77.2261 50.2482 69.4338 50.7852 65.5825 43.8202Z" fill="#ABCCFF"/>
<path d="M65.5824 43.8202C62.2566 43.8202 7.09741 67.3692 7.09741 67.3692C9.52352 73.2481 11.5999 76.2455 14.8085 81.7654C17.718 86.7709 18.9085 89.9048 22.6666 94.3546C26.1981 98.536 28.5315 100.704 33.1031 103.812C38.8417 107.713 42.5356 109.684 49.3894 111.16C53.4201 105.162 102.543 85.2258 101.434 78.1602C100.406 71.6111 99.0487 66.5468 95.3765 62.8052C91.7042 59.0636 90.0129 57.749 84.222 54.352C77.2261 50.2482 69.4337 50.7852 65.5824 43.8202Z" stroke="#544100" stroke-width="0.692884"/>
<circle cx="19.5" cy="25.8745" r="2.28652" fill="#544100"/>
<circle cx="37.7921" cy="23.6572" r="2.28652" fill="#544100"/>
<path d="M25.9641 34.6742L35.4566 32.8727" stroke="#544100" stroke-width="0.692884"/>
<path d="M36.6345 30.3783C36.6345 30.3783 35.267 31.1767 35.5565 32.824C35.8338 34.4022 37.8817 34.6742 37.8817 34.6742" stroke="#544100" stroke-width="0.692884" stroke-linecap="round"/>
<path d="M23.6083 32.942C23.6083 32.942 25.7203 33.2221 26.0934 34.9176C26.4508 36.5419 24.937 37.4099 24.937 37.4099" stroke="#544100" stroke-width="0.692884" stroke-linecap="round"/>
</svg>
