<svg width="314" height="271" viewBox="0 0 314 271" fill="none" xmlns="http://www.w3.org/2000/svg">
<path d="M19.6248 82.4867C19.6248 82.4867 17.9861 64.4449 19.6248 53.0634C21.9083 37.204 21.6873 25.6077 33.4342 14.2833C46.4976 1.68995 60.6679 -0.586177 78.9681 1.88271C94.9001 4.03212 105.112 8.72433 115.171 20.8218C123.011 30.2508 123.112 38.1166 126.741 49.6814C130.678 62.2259 133.359 69.5733 139.754 81.1397C146.962 94.175 161.546 93.1699 174.639 100.85C185.477 107.208 173.859 104.741 180.732 111.743C184.415 115.496 164.768 110.067 146.035 106.107C136.889 108.309 126.559 110.737 120.454 109.913C116.97 116.128 120.051 127.309 110.318 125.212C97.4909 122.449 78.5243 140.57 67.7843 133.269C59.2283 127.453 66.045 183.542 59.4358 175.717C52.4022 167.389 50.1743 161.524 44.7289 152.156C38.724 141.825 34.838 136.215 30.2974 125.212C23.7163 109.265 19.6248 82.4867 19.6248 82.4867Z" fill="#C1AE68" stroke="#544100" stroke-width="1.29676"/>
<path d="M25.3807 75.6935C25.3807 75.6935 23.7419 61.0632 25.3807 49.6817C27.6642 33.8223 27.8981 26.0702 39.645 14.7459C52.7083 2.15254 60.6683 -0.585906 78.9685 1.88298C94.9005 4.03239 105.113 8.7246 115.172 20.8221C123.012 30.2511 123.112 38.1169 126.742 49.6817C130.679 62.2262 133.359 69.5736 139.755 81.1399C146.963 94.1752 161.546 93.1701 174.639 100.851C185.477 107.208 181.64 106.427 188.513 113.429C193.096 118.098 174.915 108.497 162.86 105.214C162.288 106.166 161.004 107.969 159.535 109.422C158.152 111.071 157.074 111.627 156.102 111.603C155.405 111.714 154.757 111.532 154.219 110.921C151.883 109.469 149.361 106.512 143.386 110.447C133.08 117.233 128.517 106.406 116.154 107.594C102.956 108.862 110.035 123.869 97.0914 121.08C84.2644 118.316 74.1157 159.892 63.3757 152.591C54.8197 146.775 69.9849 174.941 63.3757 167.115C56.4275 158.888 54.0946 154.874 48.7895 145.747L48.5926 145.408C42.5877 135.078 39.9063 127.674 35.3657 116.671C28.7846 100.724 25.3807 75.6935 25.3807 75.6935Z" fill="#D8C891"/>
<path d="M139.765 81.1399C133.54 81.1399 30.3076 125.213 30.3076 125.213C34.8482 136.215 38.7342 141.825 44.7391 152.156C50.1845 161.524 52.4124 167.389 59.446 175.717C66.0552 183.543 67.7839 183.973 67.7839 183.973L87.4946 142.088L147.535 107.983L193.699 115.893C193.699 115.893 185.487 107.208 174.649 100.851C161.556 93.1701 146.972 94.1752 139.765 81.1399Z" fill="#92AACF" stroke="#544100" stroke-width="1.29676"/>
<path d="M139.765 81.1399C133.54 81.1399 37.6992 122.636 37.6992 122.636C42.2398 133.639 44.9212 140.575 50.9262 150.905C56.3715 160.273 71.1556 176.063 71.1556 176.063L87.4947 141.828L130.936 152.073L142.088 120.302L195.525 116.671C195.525 116.671 185.487 107.208 174.649 100.851C161.556 93.1701 146.972 94.1752 139.765 81.1399Z" fill="#ABCCFF"/>
<path d="M139.765 81.1399C133.54 81.1399 30.3076 125.213 30.3076 125.213C34.8482 136.215 38.7342 141.825 44.7391 152.156C50.1845 161.524 52.4124 167.389 59.446 175.717C66.0552 183.543 67.7839 184.088 67.7839 184.088L87.4947 141.828L130.806 152.156L141.699 120.561L195.525 116.671C195.525 116.671 185.487 107.208 174.649 100.851C161.556 93.1701 146.972 94.1752 139.765 81.1399Z" stroke="#544100" stroke-width="1.29676"/>
<circle cx="53.5195" cy="47.5532" r="4.2793" fill="#544100"/>
<circle cx="87.7549" cy="43.4038" r="4.2793" fill="#544100"/>
<circle cx="77.7709" cy="63.5038" r="8.29925" fill="#544100"/>
<path d="M180.988 231.209C180.988 231.209 182.076 232.784 183.528 234.177C184.751 232.478 184.69 223.884 188.947 231.209C188.947 231.209 188.947 231.209 188.947 231.209C189.88 226.928 191.55 223.866 190.492 231.209C190.093 233.981 189.325 235.403 188.39 235.967C188.452 239.087 189.776 240.853 194.085 236.699C207.148 224.105 209.112 224.85 227.412 227.319C243.344 229.468 233.951 194.293 244.01 206.39C249.254 212.697 247.368 204.314 246.629 201.531C246.254 200.269 246.371 200.558 246.629 201.531C246.786 202.056 247.028 202.851 247.382 203.977C251.037 215.623 249.548 191.876 254.433 197.67C252.609 193.484 251.705 188.994 258.015 192.695C268.853 199.053 276.559 177.653 276.559 177.653C276.559 177.653 285.972 194.133 287.896 206.39C289.971 219.614 288.481 229.418 280.938 240.644C273.764 251.32 267.56 256.741 255.683 262.289C244.503 267.511 236.819 266.964 224.456 268.151C211.258 269.419 203.436 270.94 190.492 268.151C177.665 265.387 170.752 261.699 160.012 254.398C151.456 248.582 165.163 248.242 158.554 240.416C153.343 234.246 175.526 237.307 185.157 235.498C184.59 235.13 184.037 234.665 183.528 234.177C183.027 234.874 182.309 234.41 180.988 231.209Z" fill="#C1AE68" stroke="#544100" stroke-width="1.29676"/>
<path d="M182.547 229.061C179.946 232.297 175.931 228.097 175.931 228.097C175.931 228.097 175.965 213.114 182.547 229.061C183.067 222.55 185.627 215.014 184.36 223.818C183.981 226.447 183.328 228.09 182.547 229.061C187.087 240.064 188.263 218.731 194.268 229.061C202.28 224.576 205.761 231.774 220.799 233.803C236.731 235.952 229.543 194.293 239.602 206.39C243.174 210.687 242.737 207.384 241.546 203.61C240.836 203.124 240.183 202.071 239.602 200.217C237.626 193.922 240.124 199.102 241.546 203.61C245.642 206.414 251.657 190.36 257.108 200.217C264.316 213.252 260.224 186.052 273.317 193.733C284.155 200.09 273.317 174.35 276.559 177.653C279.801 180.956 285.972 194.134 287.896 206.39C289.972 219.614 288.482 229.418 280.938 240.645C273.764 251.321 267.741 249.104 257.108 256.107C246.802 262.893 235.625 259.588 223.262 260.775C210.064 262.043 201.194 260.971 188.25 258.182C175.423 255.418 170.752 253.034 160.012 245.733C151.456 239.917 200.877 236.887 194.268 229.061C192.53 230.035 190.579 231.558 188.25 233.803C183.024 238.841 182.13 234.28 182.547 229.061Z" fill="#D8C891"/>
<path d="M236.101 206.39C229.876 206.39 188.769 234.451 188.769 234.451C193.31 245.454 160.889 220.316 160.889 220.316L149.866 245.344C149.866 245.344 151.467 248.582 160.023 254.398C170.763 261.699 177.676 265.387 190.503 268.151C198.047 256.925 289.983 219.614 287.907 206.39C285.983 194.133 276.57 177.653 276.57 177.653C276.57 177.653 268.854 193.088 258.016 186.73C244.923 179.05 243.308 219.426 236.101 206.39Z" fill="#92AACF" stroke="#544100" stroke-width="1.29676"/>
<path d="M212.111 213.184L169.058 203.069L156.35 229.912L152.46 238.471C152.46 238.471 160.762 243.936 169.318 249.753C180.058 257.054 200.57 259.738 200.57 259.738C200.57 259.738 290.565 217.982 287.644 204.755C284.723 191.528 276.57 177.653 276.57 177.653L222.744 181.543L212.111 213.184Z" fill="#ABCCFF"/>
<path d="M276.831 177.653L223.005 181.543L212.112 213.138L168.801 202.81L149.09 245.07" stroke="#544100" stroke-width="1.29676"/>
<path d="M276.302 177.394C283.175 184.397 285.894 194.134 287.818 206.391C289.894 219.615 197.958 256.926 190.415 268.152C177.588 265.388 170.674 261.7 159.934 254.399C151.378 248.582 149.739 246.382 148.831 244.826" stroke="#544100" stroke-width="1.29676"/>
<path opacity="0.5" d="M270.274 256.461L233.964 176.512L270.274 188.715L253.865 169.56L313 158.318L239.813 141.825L306.583 63.5034L198.873 114.609L218.206 63.5034L172.474 114.609L151.436 63.5034L130.398 121.043L97.5811 89.6107L106.922 133.32H1L102.292 176.512L64.7646 202.028L115.695 194.04L97.5811 256.461L176.048 210.089L186.527 231.389L198.873 194.04L270.274 256.461Z" fill="#FFF844" stroke="#CE0000" stroke-width="1.29676"/>
<path d="M129.943 161.588C129.943 163.63 129.52 165.522 128.673 167.265C127.827 169.008 126.681 170.601 125.237 172.045C123.793 173.44 122.1 174.685 120.158 175.78C118.266 176.826 116.249 177.722 114.108 178.469C112.017 179.166 109.851 179.714 107.61 180.112C105.419 180.461 103.302 180.635 101.261 180.635C99.4183 180.635 97.7004 180.486 96.1069 180.187C98.4971 171.473 100.389 162.709 101.784 153.895C103.228 145.031 104.597 136.118 105.892 127.155C108.481 126.607 111.17 126.134 113.959 125.736C116.747 125.287 119.635 125.063 122.623 125.063C123.868 125.063 125.188 125.213 126.582 125.512C127.976 125.81 129.246 126.358 130.391 127.155C131.536 127.952 132.483 128.997 133.229 130.292C134.026 131.587 134.425 133.23 134.425 135.222C134.425 137.114 134.101 138.882 133.454 140.525C132.856 142.168 132.059 143.662 131.063 145.007C130.117 146.351 129.022 147.521 127.777 148.517C126.532 149.463 125.262 150.185 123.968 150.683C124.615 151.032 125.287 151.53 125.984 152.177C126.681 152.824 127.329 153.596 127.926 154.493C128.524 155.339 128.997 156.36 129.345 157.555C129.744 158.75 129.943 160.095 129.943 161.588ZM112.838 153.82C112.639 155.015 112.44 156.086 112.241 157.032C112.091 157.928 111.942 158.8 111.793 159.646C111.643 160.493 111.469 161.389 111.27 162.335C111.12 163.232 110.946 164.302 110.747 165.547C111.693 165.448 112.764 165.273 113.959 165.024C115.154 164.775 116.299 164.402 117.395 163.904C118.49 163.356 119.411 162.659 120.158 161.812C120.905 160.916 121.279 159.846 121.279 158.601C121.279 157.704 121.03 156.957 120.532 156.36C120.083 155.762 119.486 155.264 118.739 154.866C118.042 154.468 117.27 154.194 116.424 154.044C115.577 153.845 114.78 153.746 114.033 153.746C113.784 153.746 113.56 153.746 113.361 153.746C113.212 153.746 113.037 153.771 112.838 153.82ZM116.199 135.745C116.1 136.292 115.975 136.94 115.826 137.687C115.726 138.434 115.602 139.23 115.453 140.077C115.303 140.873 115.129 141.67 114.93 142.467C114.78 143.264 114.656 143.961 114.556 144.558C115.652 144.359 116.747 144.085 117.843 143.737C118.938 143.388 119.909 143.015 120.756 142.616C121.652 142.168 122.349 141.695 122.847 141.197C123.395 140.699 123.669 140.151 123.669 139.554C123.669 138.807 123.445 138.209 122.997 137.761C122.548 137.263 121.951 136.865 121.204 136.566C120.507 136.267 119.76 136.068 118.963 135.969C118.216 135.819 117.544 135.745 116.946 135.745H116.199ZM169.959 139.927C169.959 144.011 169.511 147.87 168.614 151.505C167.768 155.09 166.622 158.402 165.178 161.439C163.734 164.427 162.041 167.116 160.099 169.506C158.207 171.846 156.215 173.863 154.124 175.556C152.032 177.199 149.916 178.469 147.775 179.365C145.634 180.212 143.592 180.635 141.65 180.635C140.007 180.635 138.513 180.336 137.168 179.739C135.824 179.092 134.654 178.17 133.658 176.975C132.662 175.73 131.865 174.162 131.268 172.27C130.72 170.328 130.446 168.012 130.446 165.323C130.446 162.535 130.795 159.597 131.492 156.509C132.189 153.422 133.135 150.36 134.33 147.322C135.525 144.284 136.994 141.396 138.737 138.658C140.48 135.919 142.397 133.504 144.488 131.412C146.58 129.271 148.821 127.578 151.211 126.333C153.601 125.088 156.091 124.466 158.68 124.466C160.921 124.466 162.763 124.939 164.207 125.885C165.701 126.781 166.847 127.976 167.643 129.47C168.49 130.914 169.087 132.558 169.436 134.4C169.784 136.243 169.959 138.085 169.959 139.927ZM141.575 163.381C141.575 163.929 141.675 164.501 141.874 165.099C142.073 165.697 142.347 166.219 142.696 166.668C143.044 167.116 143.468 167.514 143.965 167.863C144.513 168.161 145.086 168.311 145.683 168.311C147.924 168.311 149.916 167.539 151.659 165.995C153.402 164.452 154.846 162.559 155.991 160.319C157.136 158.078 158.008 155.688 158.605 153.148C159.253 150.609 159.576 148.293 159.576 146.202C159.576 145.604 159.527 144.957 159.427 144.26C159.377 143.562 159.228 142.915 158.979 142.318C158.78 141.72 158.431 141.222 157.933 140.824C157.485 140.376 156.863 140.151 156.066 140.151C154.472 140.151 153.003 140.55 151.659 141.347C150.314 142.143 149.094 143.214 147.999 144.558C146.953 145.853 146.032 147.347 145.235 149.04C144.439 150.683 143.741 152.376 143.144 154.119C142.596 155.812 142.198 157.48 141.949 159.124C141.7 160.767 141.575 162.186 141.575 163.381ZM206.795 139.927C206.795 144.011 206.347 147.87 205.45 151.505C204.604 155.09 203.458 158.402 202.014 161.439C200.57 164.427 198.877 167.116 196.935 169.506C195.043 171.846 193.051 173.863 190.96 175.556C188.868 177.199 186.752 178.469 184.611 179.365C182.47 180.212 180.428 180.635 178.486 180.635C176.843 180.635 175.349 180.336 174.004 179.739C172.66 179.092 171.49 178.17 170.494 176.975C169.498 175.73 168.701 174.162 168.104 172.27C167.556 170.328 167.282 168.012 167.282 165.323C167.282 162.535 167.631 159.597 168.328 156.509C169.025 153.422 169.971 150.36 171.166 147.322C172.361 144.284 173.83 141.396 175.573 138.658C177.316 135.919 179.233 133.504 181.324 131.412C183.416 129.271 185.657 127.578 188.047 126.333C190.437 125.088 192.927 124.466 195.516 124.466C197.757 124.466 199.599 124.939 201.043 125.885C202.537 126.781 203.683 127.976 204.479 129.47C205.326 130.914 205.923 132.558 206.272 134.4C206.62 136.243 206.795 138.085 206.795 139.927ZM178.411 163.381C178.411 163.929 178.511 164.501 178.71 165.099C178.909 165.697 179.183 166.219 179.532 166.668C179.88 167.116 180.304 167.514 180.802 167.863C181.349 168.161 181.922 168.311 182.519 168.311C184.76 168.311 186.752 167.539 188.495 165.995C190.238 164.452 191.682 162.559 192.827 160.319C193.972 158.078 194.844 155.688 195.441 153.148C196.089 150.609 196.412 148.293 196.412 146.202C196.412 145.604 196.363 144.957 196.263 144.26C196.213 143.562 196.064 142.915 195.815 142.318C195.616 141.72 195.267 141.222 194.769 140.824C194.321 140.376 193.699 140.151 192.902 140.151C191.308 140.151 189.839 140.55 188.495 141.347C187.15 142.143 185.93 143.214 184.835 144.558C183.789 145.853 182.868 147.347 182.071 149.04C181.275 150.683 180.577 152.376 179.98 154.119C179.432 155.812 179.034 157.48 178.785 159.124C178.536 160.767 178.411 162.186 178.411 163.381ZM199.051 179.888C201.242 173.265 203.334 166.767 205.325 160.393C206.172 157.704 207.043 154.891 207.94 151.953C208.836 149.015 209.732 146.102 210.629 143.214C211.525 140.326 212.347 137.537 213.094 134.848C213.89 132.159 214.587 129.669 215.185 127.379C217.924 127.379 220.513 127.23 222.953 126.931C225.393 126.632 228.032 126.358 230.871 126.109C230.721 127.205 230.547 128.45 230.348 129.844C230.198 131.188 229.999 132.607 229.75 134.101C229.551 135.595 229.327 137.139 229.078 138.732C228.829 140.326 228.53 142.367 228.182 144.857C227.833 147.347 227.36 150.459 226.762 154.194H227.733C229.177 150.409 230.373 147.272 231.319 144.782C232.265 142.243 233.037 140.176 233.634 138.583C234.232 136.989 234.829 135.446 235.427 133.952C236.074 132.408 236.672 130.964 237.219 129.62C237.817 128.225 238.365 127.005 238.863 125.96C240.108 125.86 241.278 125.736 242.373 125.586C243.469 125.437 244.564 125.287 245.66 125.138C246.755 124.939 247.851 124.765 248.946 124.615C250.092 124.416 251.336 124.192 252.681 123.943C252.183 126.831 251.71 129.794 251.262 132.832C250.814 135.869 250.415 138.907 250.067 141.944C249.718 144.932 249.37 147.895 249.021 150.833C248.722 153.771 248.448 156.559 248.199 159.198C247.602 165.373 247.079 171.398 246.631 177.274L233.634 179.589C233.634 179.341 233.659 178.668 233.709 177.573C233.808 176.477 233.908 175.133 234.008 173.539C234.157 171.946 234.331 170.178 234.53 168.236C234.779 166.294 235.004 164.352 235.203 162.41C235.452 160.468 235.701 158.601 235.95 156.808C236.199 154.966 236.448 153.397 236.697 152.102H236.024C235.327 154.194 234.555 156.41 233.709 158.75C232.862 161.041 231.991 163.381 231.095 165.771C230.248 168.161 229.402 170.502 228.555 172.792C227.708 175.083 226.962 177.274 226.314 179.365C224.571 179.415 223.078 179.49 221.833 179.589C220.588 179.639 219.144 179.714 217.5 179.814L219.891 152.102H218.77C218.671 152.75 218.422 153.845 218.023 155.389C217.625 156.883 217.152 158.626 216.604 160.617C216.106 162.559 215.558 164.601 214.961 166.742C214.363 168.834 213.791 170.801 213.243 172.643C212.745 174.436 212.322 175.93 211.973 177.125C211.625 178.27 211.425 178.917 211.376 179.067L199.051 179.888Z" fill="#E24400"/>
</svg>
