<svg width="438" height="482" viewBox="0 0 438 482" fill="none" xmlns="http://www.w3.org/2000/svg">
<path d="M3.67584 121.795C-0.094806 147.983 3.67584 189.496 3.67584 189.496C3.67584 189.496 13.0902 251.112 28.2329 287.806C38.6805 313.123 47.6219 326.031 61.439 349.801C73.9685 371.356 79.0949 384.851 95.2788 404.014C110.486 422.02 120.535 431.355 140.221 444.738C164.934 461.537 180.841 470.025 210.355 476.384C240.139 482.801 258.135 479.301 288.504 476.384C316.95 473.652 334.631 474.912 360.355 462.896C387.684 450.13 401.958 437.658 418.465 413.092C435.823 387.262 439.251 364.702 434.475 334.276C430.048 306.073 424.204 284.265 408.39 268.152C392.576 252.04 385.292 246.379 360.355 231.75C330.228 214.078 296.672 216.391 280.087 186.397C265.372 159.784 259.204 142.878 250.145 114.013C241.793 87.4034 241.563 69.3045 223.523 47.6089C200.378 19.7733 176.88 8.97673 140.221 4.03107C98.1138 -1.64971 65.5086 3.58753 35.4506 32.5642C8.42155 58.6209 8.93001 85.3035 3.67584 121.795Z" fill="#C1AE68" stroke="#544100" stroke-width="2.98377"/>
<path d="M16.919 114.013C13.1484 140.202 16.919 173.865 16.919 173.865C16.919 173.865 24.7513 231.458 39.894 268.152C50.3416 293.469 56.5114 310.505 70.3285 334.276L70.7815 335.055C82.9883 356.056 88.356 365.291 104.343 384.221C119.551 402.227 120.535 411.418 140.222 424.8C164.934 441.599 175.681 447.085 205.195 453.445C234.978 459.862 255.388 462.329 285.757 459.412C314.203 456.68 339.921 464.286 363.633 448.671C388.1 432.558 401.958 437.658 418.466 413.093C435.823 387.262 439.251 364.703 434.475 334.276C430.048 306.073 424.204 284.265 408.39 268.152C392.576 252.04 385.292 246.379 360.355 231.75C330.229 214.078 296.672 216.391 280.088 186.397C265.372 159.784 259.204 142.878 250.145 114.013C241.793 87.4035 241.563 69.3047 223.523 47.6091C200.378 19.7734 176.88 8.97686 140.222 4.0312C98.114 -1.64958 79.7985 4.65143 49.7405 33.6281C22.7114 59.6848 22.1732 77.5219 16.919 114.013Z" fill="#D8C891"/>
<path d="M280.111 186.397C265.789 186.397 28.2568 287.806 28.2568 287.806C38.7044 313.123 47.6459 326.03 61.4629 349.801C73.9924 371.356 79.1188 384.851 95.3027 404.014C110.51 422.02 120.559 431.355 140.245 444.738C164.958 461.537 180.865 470.025 210.379 476.384C227.737 450.553 439.275 364.702 434.499 334.275C430.072 306.073 424.227 284.265 408.413 268.152C392.599 252.04 385.316 246.379 360.379 231.75C330.252 214.078 296.696 216.391 280.111 186.397Z" fill="#92AACF" stroke="#544100" stroke-width="2.98377"/>
<path d="M280.112 186.397C265.79 186.397 45.2646 281.878 45.2646 281.878C55.7122 307.194 61.882 323.154 75.6991 346.924C88.2286 368.479 89.3529 378.784 105.537 397.946C120.744 415.953 141.945 420.667 161.632 434.05C186.344 450.849 233.541 457.025 233.541 457.025C233.541 457.025 440.614 360.948 433.893 330.513C427.172 300.079 424.228 284.265 408.414 268.152C392.6 252.04 385.317 246.379 360.379 231.75C330.253 214.078 296.696 216.391 280.112 186.397Z" fill="#ABCCFF"/>
<path d="M280.111 186.397C265.789 186.397 28.2568 287.806 28.2568 287.806C38.7044 313.123 47.6459 326.03 61.4629 349.801C73.9924 371.356 79.1188 384.851 95.3027 404.014C110.51 422.02 120.559 431.355 140.245 444.738C164.958 461.537 180.865 470.025 210.379 476.384C227.737 450.553 439.275 364.702 434.499 334.275C430.072 306.073 424.227 284.265 408.413 268.152C392.599 252.04 385.316 246.379 360.379 231.75C330.252 214.078 296.696 216.391 280.111 186.397Z" stroke="#544100" stroke-width="2.98377"/>
<circle cx="81.6658" cy="109.117" r="9.84644" fill="#544100"/>
<circle cx="160.438" cy="99.5697" r="9.84644" fill="#544100"/>
<path d="M109.503 147.012L150.381 139.255" stroke="#544100" stroke-width="2.98377"/>
<path d="M155.452 128.512C155.452 128.512 149.563 131.95 150.81 139.044C152.004 145.84 160.823 147.011 160.823 147.011" stroke="#544100" stroke-width="2.98377" stroke-linecap="round"/>
<path d="M99.3583 139.553C99.3583 139.553 108.453 140.759 110.06 148.06C111.599 155.055 105.08 158.793 105.08 158.793" stroke="#544100" stroke-width="2.98377" stroke-linecap="round"/>
</svg>
